<svg id="visual" viewBox="0 0 960 300" width="960" height="300" xmlns="http://www.w3.org/2000/svg" xmlns:xlink="http://www.w3.org/1999/xlink" version="1.1"><rect x="0" y="0" width="960" height="300" fill="#1A1B1E"></rect><path d="M0 241L22.8 242.5C45.7 244 91.3 247 137 247.8C182.7 248.7 228.3 247.3 274 244.3C319.7 241.3 365.3 236.7 411.2 236.7C457 236.7 503 241.3 548.8 241.8C594.7 242.3 640.3 238.7 686 238.8C731.7 239 777.3 243 823 242C868.7 241 914.3 235 937.2 232L960 229L960 301L937.2 301C914.3 301 868.7 301 823 301C777.3 301 731.7 301 686 301C640.3 301 594.7 301 548.8 301C503 301 457 301 411.2 301C365.3 301 319.7 301 274 301C228.3 301 182.7 301 137 301C91.3 301 45.7 301 22.8 301L0 301Z" fill="#e8590c"></path><path d="M0 251L22.8 252C45.7 253 91.3 255 137 255.7C182.7 256.3 228.3 255.7 274 255.7C319.7 255.7 365.3 256.3 411.2 254.2C457 252 503 247 548.8 245.5C594.7 244 640.3 246 686 248.8C731.7 251.7 777.3 255.3 823 257.5C868.7 259.7 914.3 260.3 937.2 260.7L960 261L960 301L937.2 301C914.3 301 868.7 301 823 301C777.3 301 731.7 301 686 301C640.3 301 594.7 301 548.8 301C503 301 457 301 411.2 301C365.3 301 319.7 301 274 301C228.3 301 182.7 301 137 301C91.3 301 45.7 301 22.8 301L0 301Z" fill="#e75019"></path><path d="M0 268L22.8 267.7C45.7 267.3 91.3 266.7 137 265.3C182.7 264 228.3 262 274 260.2C319.7 258.3 365.3 256.7 411.2 257.7C457 258.7 503 262.3 548.8 264.2C594.7 266 640.3 266 686 264.8C731.7 263.7 777.3 261.3 823 260.5C868.7 259.7 914.3 260.3 937.2 260.7L960 261L960 301L937.2 301C914.3 301 868.7 301 823 301C777.3 301 731.7 301 686 301C640.3 301 594.7 301 548.8 301C503 301 457 301 411.2 301C365.3 301 319.7 301 274 301C228.3 301 182.7 301 137 301C91.3 301 45.7 301 22.8 301L0 301Z" fill="#e54622"></path><path d="M0 265L22.8 265.5C45.7 266 91.3 267 137 268.7C182.7 270.3 228.3 272.7 274 272.7C319.7 272.7 365.3 270.3 411.2 268.8C457 267.3 503 266.7 548.8 267.3C594.7 268 640.3 270 686 270.7C731.7 271.3 777.3 270.7 823 269.7C868.7 268.7 914.3 267.3 937.2 266.7L960 266L960 301L937.2 301C914.3 301 868.7 301 823 301C777.3 301 731.7 301 686 301C640.3 301 594.7 301 548.8 301C503 301 457 301 411.2 301C365.3 301 319.7 301 274 301C228.3 301 182.7 301 137 301C91.3 301 45.7 301 22.8 301L0 301Z" fill="#e33c2a"></path><path d="M0 281L22.8 280.8C45.7 280.7 91.3 280.3 137 281.5C182.7 282.7 228.3 285.3 274 286.5C319.7 287.7 365.3 287.3 411.2 286.2C457 285 503 283 548.8 281.5C594.7 280 640.3 279 686 280C731.7 281 777.3 284 823 285.8C868.7 287.7 914.3 288.3 937.2 288.7L960 289L960 301L937.2 301C914.3 301 868.7 301 823 301C777.3 301 731.7 301 686 301C640.3 301 594.7 301 548.8 301C503 301 457 301 411.2 301C365.3 301 319.7 301 274 301C228.3 301 182.7 301 137 301C91.3 301 45.7 301 22.8 301L0 301Z" fill="#e03131"></path></svg>